<svg width="24" height="25" viewBox="0 0 24 25" fill="none" xmlns="http://www.w3.org/2000/svg">
<path d="M15.5799 12.4467C15.5799 14.4267 13.9799 16.0267 11.9999 16.0267C10.0199 16.0267 8.41992 14.4267 8.41992 12.4467C8.41992 10.4667 10.0199 8.8667 11.9999 8.8667C13.9799 8.8667 15.5799 10.4667 15.5799 12.4467Z" stroke="#292D32" stroke-width="1.5" stroke-linecap="round" stroke-linejoin="round"/>
<path d="M11.9998 20.7167C15.5298 20.7167 18.8198 18.6367 21.1098 15.0367C22.0098 13.6267 22.0098 11.2567 21.1098 9.84669C18.8198 6.24669 15.5298 4.16669 11.9998 4.16669C8.46984 4.16669 5.17984 6.24669 2.88984 9.84669C1.98984 11.2567 1.98984 13.6267 2.88984 15.0367C5.17984 18.6367 8.46984 20.7167 11.9998 20.7167Z" stroke="#292D32" stroke-width="1.5" stroke-linecap="round" stroke-linejoin="round"/>
<line x1="0.690476" y1="0.723361" x2="22.6905" y2="21.7234" stroke="#292D32" stroke-width="2"/>
</svg>
