<svg width="150" height="50" viewBox="0 0 150 50" fill="none" xmlns="http://www.w3.org/2000/svg">
<rect width="150" height="50" rx="20" fill="white"/>
<g clip-path="url(#clip0_1_430)">
<mask id="mask0_1_430" style="mask-type:luminance" maskUnits="userSpaceOnUse" x="9" y="15" width="20" height="20">
<path d="M9.11508 15.311H28.493V34.689H9.11508V15.311Z" fill="white"/>
</mask>
<g mask="url(#mask0_1_430)">
<path d="M18.804 34.689C24.1551 34.689 28.493 30.3511 28.493 25C28.493 19.6489 24.1551 15.311 18.804 15.311C13.453 15.311 9.11508 19.6489 9.11508 25C9.11508 30.3511 13.453 34.689 18.804 34.689Z" fill="#04A9A5"/>
<path d="M20.3737 31.1041V20.7305H19.1568C18.2796 20.7305 17.6143 20.9165 17.1622 21.2892C16.71 21.6483 16.4839 22.127 16.4839 22.7258C16.4839 23.1779 16.5634 23.5635 16.7229 23.8826C16.8825 24.2017 17.1157 24.4943 17.4212 24.7604C17.7274 25.0266 18.113 25.3192 18.5787 25.6383L19.7356 26.416L16.3444 31.1048H13.7904L17.0226 26.7157L18.5386 28.0721L17.3417 27.3138C16.7399 26.9229 16.1666 26.4896 15.6261 26.0174C15.1469 25.5911 14.7813 25.126 14.5287 24.6209C14.2761 24.1151 14.1495 23.5235 14.1495 22.8452C14.1495 21.6748 14.5688 20.7305 15.4065 20.0122C16.2579 19.281 17.5013 18.9154 19.1368 18.9154H22.7475V31.1041H20.3737Z" fill="white"/>
</g>
<path d="M39.8324 34.689C34.4873 34.689 30.1434 30.3619 30.1434 25.0174C30.1434 19.6724 34.4873 15.311 39.8324 15.311C45.1768 15.311 49.5214 19.6724 49.5214 25.0174C49.5214 30.3619 45.1768 34.689 39.8324 34.689Z" fill="#04A9A5"/>
<path d="M38.3319 16.6222L27.5229 33.4874H32.4778L38.722 23.7662L38.5696 23.6971L36.8385 30.6538L40.5035 31.2997L44.2706 26.565L44.0665 26.4636L42.794 31.8416L50.7796 30.3198L49.1506 27.6366L46.2723 28.2955L46.6121 28.6862L47.9524 23.0699L44.83 20.9822L40.7412 26.1238L40.9447 26.2259L42.6241 19.4888L38.3319 16.6222Z" fill="white"/>
<path d="M38.3319 16.6222L27.5229 33.4874H32.4778L38.722 23.7662L38.5696 23.6971L36.8385 30.6538L40.5035 31.2997L44.2706 26.565L44.0665 26.4636L42.794 31.8416L46.0043 31.2299L47.9524 23.0699L44.83 20.9822L40.7412 26.1238L40.9447 26.2259L42.6241 19.4888L38.3319 16.6222Z" fill="white"/>
<path d="M53.2354 31.1042L59.26 18.9154H63.8481L64.786 26.3365L69.4341 18.9148H73.9827V31.1042H69.5342V24.5609L65.4041 31.1042H60.9556L60.0984 24.5008L56.8261 31.1042H53.2354ZM87.648 28.6903C87.648 29.1031 87.6551 29.5087 87.6681 29.9072C87.6816 30.3064 87.7081 30.6985 87.7482 31.0841H83.6181C83.52 30.8926 83.44 30.6924 83.3791 30.486C83.2977 30.2129 83.2443 29.9322 83.2195 29.6482C82.7939 30.1533 82.2552 30.5719 81.6034 30.9046C80.9652 31.2243 80.0538 31.3838 78.8705 31.3838C77.6736 31.3838 76.7157 31.1042 75.9974 30.5461C75.2927 29.9873 74.9406 29.2426 74.9406 28.3112C74.9406 27.4469 75.1861 26.7822 75.6783 26.3165C76.1841 25.8379 76.9682 25.5052 78.0327 25.3192C79.0966 25.119 80.4595 25.0195 82.1221 25.0195H83.1595V24.7999C83.1595 24.3748 82.9799 24.0487 82.6208 23.8226C82.2616 23.5965 81.5899 23.4835 80.6061 23.4835C79.6353 23.4835 78.731 23.6101 77.8925 23.8626C77.0683 24.1016 76.3966 24.3413 75.8779 24.5809V21.9074C76.4631 21.6942 77.2479 21.4817 78.2323 21.2692C79.2296 21.0431 80.3665 20.9301 81.6435 20.9301C82.9334 20.9301 84.0237 21.0496 84.9151 21.2892C85.8065 21.5153 86.4847 21.9074 86.9498 22.4661C87.4155 23.0113 87.648 23.7696 87.648 24.7404V28.6903ZM89.0045 21.2298H93.1346L93.3736 22.9247C93.8793 22.2601 94.4839 21.775 95.1893 21.4688C95.894 21.1626 96.7053 21.0102 97.6231 21.0102C98.6605 21.0102 99.5913 21.1962 100.416 21.5683C101.223 21.9254 101.904 22.5163 102.371 23.2645C102.85 24.0222 103.089 24.9801 103.089 26.1369C103.089 27.2938 102.85 28.2582 102.371 29.0294C101.906 29.7878 101.254 30.36 100.416 30.745C99.5777 31.1313 98.6205 31.3238 97.543 31.3238C96.7718 31.3287 96.0067 31.1864 95.2888 30.9046C94.597 30.6126 93.9988 30.1533 93.4937 29.5287V33.6782H89.0045V21.2292V21.2298ZM116.096 26.1369C116.096 25.1526 116.362 24.2747 116.894 23.5035C117.44 22.7322 118.211 22.1277 119.208 21.6884C120.219 21.2363 121.41 21.0102 122.78 21.0102C124.203 21.0102 125.393 21.2556 126.35 21.7478C127.321 22.24 127.999 22.9383 128.385 23.8426C128.784 24.7469 128.837 25.8179 128.545 27.0548H120.665C120.824 27.6265 121.177 28.0586 121.722 28.3512C122.281 28.6309 123.105 28.7704 124.195 28.7704C124.954 28.7704 125.658 28.7039 126.31 28.5702C126.923 28.4347 127.529 28.2685 128.126 28.0722V30.446C127.554 30.7121 126.915 30.9246 126.211 31.0841C125.519 31.2437 124.608 31.3238 123.478 31.3238C120.99 31.3238 119.135 30.8652 117.912 29.9473C116.701 29.0165 116.096 27.7466 116.096 26.1369ZM128.924 21.2292H140.315V23.7832H136.764V31.0841H132.275V23.7832H128.924V21.2292ZM103.947 21.2292H108.435V25.6977L112.685 21.2292H116.555L112.605 25.3386L117.373 31.0841H111.947L108.435 26.7351V31.0841H103.947V21.2292ZM122.8 23.2445C122.187 23.2445 121.702 23.424 121.343 23.7832C120.984 24.1288 120.751 24.5744 120.645 25.1196H124.595C124.582 24.5744 124.435 24.1287 124.156 23.7825C123.876 23.424 123.424 23.2445 122.8 23.2445ZM98.501 26.1369C98.501 25.3386 98.2814 24.7069 97.8421 24.2418C97.4171 23.7632 96.8048 23.5235 96.007 23.5235C95.2758 23.5235 94.6635 23.7496 94.1719 24.2017C93.6797 24.641 93.4336 25.2856 93.4336 26.1369C93.4336 26.9883 93.6726 27.6465 94.1519 28.1122C94.6441 28.5644 95.2623 28.7904 96.007 28.7904C96.8319 28.7904 97.45 28.5508 97.8621 28.0722C98.2878 27.5935 98.501 26.9482 98.501 26.1369ZM83.1595 26.8346H82.1421C81.1713 26.8346 80.473 26.9153 80.0474 27.0748C79.6353 27.2344 79.4292 27.5399 79.4292 27.9921C79.4292 28.3777 79.5623 28.6638 79.8277 28.8499C80.1074 29.023 80.4394 29.1095 80.8257 29.1095C81.4109 29.1095 81.8896 29.0029 82.2616 28.7904C82.6472 28.5644 82.947 28.3047 83.1595 28.0121V26.8346Z" fill="#04A9A5"/>
</g>
<defs>
<clipPath id="clip0_1_430">
<rect width="131.77" height="19.3779" fill="white" transform="translate(9.11508 15.311)"/>
</clipPath>
</defs>
</svg>
