<svg width="150" height="50" viewBox="0 0 150 50" fill="none" xmlns="http://www.w3.org/2000/svg">
<rect width="150" height="50" rx="20" fill="white"/>
<g clip-path="url(#clip0_1_442)">
<path fill-rule="evenodd" clip-rule="evenodd" d="M35.1269 13.5719C32.7666 13.3233 30.3872 13.8118 28.3158 14.9703C26.2444 16.1288 24.5827 17.9005 23.559 20.0417C22.5354 22.183 22.2 24.5887 22.5991 26.9283C22.9982 29.2678 24.1121 31.4264 25.7877 33.1072C27.4634 34.788 29.6184 35.9086 31.9568 36.3149C34.2951 36.7212 36.7019 36.3933 38.8463 35.3763C40.9907 34.3592 42.7674 32.703 43.9324 30.6352C45.0973 28.5674 45.5931 26.1895 45.3518 23.8285C45.0863 21.204 43.9245 18.7512 42.0621 16.8831C40.1997 15.0149 37.7505 13.8456 35.1269 13.5719ZM34.7546 31.076C33.4852 31.2463 32.1943 31.0145 31.0634 30.4133C29.9325 29.812 29.0184 28.8715 28.4496 27.724C27.8808 26.5764 27.6859 25.2794 27.8923 24.0153C28.0986 22.7513 28.6959 21.5836 29.6002 20.6765C30.5044 19.7694 31.6702 19.1685 32.9336 18.9582C34.197 18.7478 35.4946 18.9387 36.644 19.5039C37.7933 20.0691 38.7367 20.9802 39.3415 22.1093C39.9462 23.2383 40.182 24.5285 40.0157 25.7984C39.8412 27.1342 39.2311 28.3752 38.28 29.3293C37.329 30.2834 36.0899 30.8973 34.7546 31.076ZM51.4962 14.0264C51.0978 14.0273 50.7046 14.1171 50.3452 14.2891C49.9858 14.4612 49.6693 14.7112 49.4187 15.021C49.1681 15.3307 48.9898 15.6925 48.8966 16.0799C48.8034 16.4673 48.7977 16.8705 48.88 17.2604C49.1321 18.5234 50.3118 19.3863 51.5969 19.3863H59.0546L47.4487 34.7452C47.3629 34.8586 47.3103 34.9936 47.2969 35.1352C47.2835 35.2768 47.3099 35.4193 47.3729 35.5468C47.436 35.6742 47.5333 35.7816 47.654 35.8569C47.7747 35.9321 47.9139 35.9723 48.0561 35.9728H66.2611C67.5454 35.9728 68.7259 35.1101 68.978 33.8469C69.0603 33.4571 69.0547 33.0539 68.9616 32.6665C68.8685 32.2792 68.6902 31.9174 68.4397 31.6076C68.1893 31.2979 67.8729 31.0478 67.5136 30.8756C67.1544 30.7035 66.7612 30.6135 66.3629 30.6124H57.2762L68.8732 15.2655C68.9599 15.151 69.0129 15.0146 69.0264 14.8717C69.0399 14.7287 69.0133 14.5848 68.9496 14.4561C68.8858 14.3274 68.7875 14.2191 68.6656 14.1432C68.5437 14.0672 68.4031 14.0268 68.2595 14.0264H51.4962ZM124.242 14.0882C123.64 14.2315 123.104 14.5762 122.724 15.0653C122.343 15.5545 122.142 16.1587 122.151 16.7782V25.7023L107.691 14.1949C107.577 14.1049 107.441 14.0487 107.297 14.0329C107.153 14.017 107.008 14.0421 106.877 14.1052C106.747 14.1683 106.637 14.267 106.56 14.3898C106.484 14.5126 106.443 14.6545 106.444 14.7993V33.2258C106.434 33.8453 106.636 34.4495 107.016 34.9386C107.396 35.4278 107.932 35.7725 108.535 35.9158C108.926 36.0019 109.332 35.999 109.722 35.9074C110.112 35.8158 110.477 35.6378 110.789 35.3865C111.101 35.1352 111.353 34.817 111.525 34.4555C111.698 34.0939 111.788 33.6981 111.787 33.2974V24.296L126.248 35.8036C126.361 35.8936 126.498 35.9497 126.642 35.9656C126.785 35.9814 126.931 35.9564 127.061 35.8932C127.191 35.8301 127.301 35.7315 127.378 35.6088C127.454 35.4861 127.495 35.3442 127.495 35.1995V16.7057C127.495 16.3051 127.406 15.9094 127.233 15.548C127.06 15.1865 126.808 14.8685 126.496 14.6173C126.184 14.3661 125.819 14.1881 125.429 14.0965C125.039 14.005 124.634 14.0021 124.242 14.0882ZM86.591 18.8733C92.7074 18.8733 97.2775 22.1056 97.2775 24.9969C97.2775 27.8882 92.7074 31.1205 86.591 31.1205C80.4746 31.1205 75.9044 27.8882 75.9044 24.9969C75.9044 22.1056 80.4746 18.8733 86.591 18.8733ZM86.591 13.5135C77.7377 13.5135 70.561 18.6548 70.561 24.9969C70.561 31.3389 77.7377 36.4802 86.591 36.4802C95.4443 36.4802 102.621 31.3389 102.621 24.9969C102.621 18.6548 95.444 13.5135 86.591 13.5135Z" fill="#04A9A5"/>
</g>
<defs>
<clipPath id="clip0_1_442">
<rect width="104.989" height="22.9814" fill="white" transform="translate(22.5057 13.5093)"/>
</clipPath>
</defs>
</svg>
