<svg width="150" height="50" viewBox="0 0 150 50" fill="none" xmlns="http://www.w3.org/2000/svg">
<rect width="150" height="50" rx="20" fill="white"/>
<g clip-path="url(#clip0_1_445)">
<path d="M121.768 25.1826C121.768 24.5163 122.697 23.9781 123.899 23.9781C125.1 23.9781 126.445 24.5739 127.309 25.5285L128.88 23.6322C127.38 22.3252 125.867 21.6461 123.97 21.6461C121.606 21.6461 119.164 22.716 119.164 25.1826C119.164 28.213 121.807 28.4308 123.97 28.6038C125.178 28.6935 126.25 28.7767 126.25 29.5584C126.25 30.3976 125.029 30.7885 123.957 30.7885C122.71 30.7885 121.352 30.2695 120.372 29.0907L118.696 30.8461C120.034 32.4542 121.976 33.1654 123.873 33.1654C126.256 33.1654 128.854 32.0506 128.854 29.4943C128.854 26.6113 126.178 26.3358 124.119 26.1308C122.827 26.0027 121.768 25.8873 121.768 25.1762V25.1826ZM109.817 25.8937C110.246 24.8366 111.168 24.2088 112.539 24.2088C113.909 24.2088 114.728 24.8622 115.085 25.8937H109.824H109.817ZM112.656 21.6461C109.408 21.6461 106.791 24.1383 106.791 27.4314C106.791 30.5194 109.096 33.1846 112.506 33.1846C114.565 33.1846 116.228 32.2108 117.403 30.545L115.611 29.0522C114.981 30.0068 113.831 30.577 112.467 30.577C111.103 30.577 109.629 29.5456 109.512 28.04H117.994V27.1431C117.994 23.9653 115.806 21.6461 112.662 21.6461H112.656ZM102.881 32.7809H105.485V22.0369H102.881V32.7809ZM104.173 16.8154C103.114 16.8154 102.218 17.6867 102.218 18.7759C102.218 19.865 103.088 20.6467 104.219 20.6467C105.349 20.6467 106.128 19.8778 106.128 18.8207C106.128 17.7636 105.245 16.8218 104.173 16.8218V16.8154ZM66.5148 21.6269C65.2938 21.6269 64.1896 21.992 63.2543 22.6135V16.9308H60.6498V27.4121C60.6498 30.6027 63.2804 33.1654 66.5018 33.1654C69.7234 33.1654 72.3798 30.6155 72.3798 27.3801C72.3798 24.1447 69.7754 21.6269 66.5148 21.6269ZM53.0052 21.7999C50.1083 22.0882 47.744 24.5547 47.744 27.4826C47.744 30.5834 50.4332 33.1782 53.5766 33.1782C56.7202 33.1782 59.4093 30.5834 59.4093 27.4826C59.4093 26.1628 58.9221 24.9455 58.1428 23.9909L52.388 16.9436H49.0236L53.0052 21.7999ZM32.8705 28.1489L30.4868 22.0305H28.6617L26.265 28.1489L23.8683 22.0305H21.0365L25.2258 32.7874H27.0509L29.5645 26.3806L32.0911 32.7874H33.9162L38.0925 22.0305H35.2671L32.8705 28.1489ZM79.4334 21.6461C76.1859 21.6461 73.5554 24.1383 73.5554 27.284C73.5554 30.4297 75.8611 33.1846 79.2907 33.1846C81.3496 33.1846 83.0121 32.2108 84.1879 30.545L82.1614 28.9241C81.5703 29.9684 80.4401 30.577 79.3101 30.577C77.8423 30.577 76.4003 29.5456 76.2834 28.04H84.792V27.2584C84.792 23.9653 82.5901 21.6461 79.4401 21.6461H79.4334ZM88.7344 24.4907V22.0433H86.1299V32.7874H88.7344V28.2514C88.7344 26.0475 91.131 24.7021 93.4953 24.7021V22.0497H93.229C91.2284 22.0497 89.7736 22.7737 88.7344 24.4971V24.4907ZM96.996 24.4907V22.0433H94.3915V32.7874H96.996V28.2514C96.996 26.0475 99.3928 24.7021 101.757 24.7021V22.0497H101.491C99.4902 22.0497 98.0354 22.7737 96.996 24.4971V24.4907ZM43.8016 32.7809H46.4062V16.9436H43.8016V32.7745V32.7809ZM53.5896 30.6091C51.7969 30.6091 50.3421 29.1868 50.3421 27.4185C50.3421 25.6503 51.7969 24.2152 53.5766 24.2152C55.3564 24.2152 56.8568 25.6375 56.8568 27.4185C56.8568 29.1996 55.3889 30.6091 53.5963 30.6091H53.5896ZM66.4954 30.6091C64.7288 30.6091 63.2479 29.2188 63.2479 27.4057C63.2479 25.5926 64.6441 24.2152 66.5084 24.2152C68.3725 24.2152 69.7687 25.6503 69.7687 27.4057C69.7687 29.1612 68.2814 30.6091 66.4887 30.6091H66.4954ZM39.3006 32.7809H41.9051V22.0369H39.3006V32.7809ZM40.5736 16.8154C39.5149 16.8154 38.6316 17.6867 38.6316 18.7887C38.6316 19.8907 39.5604 20.6595 40.5736 20.6595C41.7037 20.6595 42.5611 19.7305 42.5611 18.731C42.5611 17.7316 41.6648 16.8154 40.5736 16.8154ZM76.5821 25.8937C77.0238 24.8366 77.9331 24.2088 79.284 24.2088C80.635 24.2088 81.5184 24.8622 81.8691 25.8937H76.5757H76.5821Z" fill="#04A9A5"/>
</g>
<defs>
<clipPath id="clip0_1_445">
<rect width="107.934" height="16.3691" fill="white" transform="translate(21.0347 16.8154)"/>
</clipPath>
</defs>
</svg>
